<svg width="543" height="92" viewBox="0 0 543 92" fill="none" xmlns="http://www.w3.org/2000/svg">
<path d="M0.308521 40.3431C0.412318 35.0559 0.612387 29.618 0.474359 24.343C3.51829 21.8659 9.55191 17.9941 13.0604 15.6015C20.5751 10.4689 28.052 5.31053 35.4905 0.127063C47.1695 8.10642 59.3993 16.0184 71.2202 23.9525C71.5458 29.2268 71.4874 34.8648 71.5608 40.1678C62.2846 33.8601 53.4037 27.7127 43.9059 21.5389C43.9152 30.7215 42.9941 42.1037 46.3437 50.7133C47.3202 52.223 48.3834 53.987 49.5155 55.4231L49.2831 55.5861C45.4142 58.2635 35.8086 55.0555 32.5598 57.3791C30.6132 54.266 29.8651 51.9405 28.9383 48.6184C26.4843 37.9697 27.6151 31.6949 27.4541 21.4943C18.4965 27.9548 9.43888 34.0215 0.308521 40.3431Z" fill="url(#paint0_linear_4_34)"/>
<path d="M32.5598 57.379C35.8086 55.0555 45.4142 58.2635 49.2831 55.5861L49.5154 55.4231C53.8372 60.2312 65.3809 66.9683 71.7914 71.2777C72.0306 76.4618 71.857 82.3156 71.8812 87.5546C61.4992 80.9209 51.0728 73.8507 41.4854 66.6823C37.4838 63.691 34.9209 61.0661 32.5598 57.379Z" fill="#9F2DF2"/>
<path d="M5.55443 92.0001C5.77428 85.9671 5.82322 79.9313 5.70228 73.8966C13.8563 66.6601 22.8466 61.6435 27.6013 51.5403C28.2213 53.4361 28.8626 55.1474 29.5928 57.0156C31.5884 60.8127 32.8072 62.6315 35.5985 66.0654C33.3177 69.1667 25.0166 75.702 21.6334 78.5019L5.55443 92.0001Z" fill="#9F2DF2"/>
<path d="M488.505 29.0928L503.118 29.0062L514.186 65.356C518.083 53.3174 521.112 41.1848 525.195 29.1013C530.774 29.0083 536.589 29.0886 542.19 29.0928C540.813 34.1083 539.009 39.1138 537.288 44.0389C532.488 58.0751 527.203 72.7855 522.866 86.9141C517.496 86.996 511.992 86.9527 506.605 86.968C502.405 76.0624 499.148 63.8193 495.591 52.5993C491.659 63.5725 488.789 75.5059 484.684 86.9368C479.467 87.0642 473.79 86.9606 468.539 86.9548C464.706 77.4829 461.526 66.3315 458.21 56.6197C455.205 47.8189 451.418 38.003 449.19 29.1388C454.118 28.8613 461.125 29.0748 466.129 29.1388C470.543 41.0823 472.506 53.6488 477.094 65.2873C480.921 53.4908 483.984 40.5723 488.505 29.0928Z" fill="black"/>
<path d="M415.059 27.0003C432.692 26.9317 447.06 40.4723 447.189 57.2784C447.317 74.0845 433.157 87.8221 415.525 87.9983C397.812 88.175 383.32 74.6039 383.191 57.7217C383.062 40.8391 397.347 27.0688 415.059 27.0003ZM417.008 72.6143C425.696 71.6832 431.966 64.2415 431.043 55.9549C430.121 47.6683 422.351 41.6465 413.651 42.4748C404.876 43.3106 398.49 50.7946 399.421 59.154C400.352 67.5129 408.243 73.5528 417.008 72.6143Z" fill="black"/>
<path d="M198.75 28.1168C199.895 28.0376 201.042 27.9985 202.189 28C209.981 28.0576 218.636 30.3932 224.183 35.7334C226.564 37.986 228.315 40.7557 229.28 43.7964C231.808 51.6893 231.153 77.2625 231 86.8265C225.802 86.9622 220.096 86.8629 214.858 86.8687L214.849 81.295C205.183 90.3979 190.459 89.7726 180.045 82.1902C169.9 71.4178 173.238 56.8579 187.735 51.816C197.453 48.4363 205.558 49.7081 214.767 53.5489C214.588 52.7583 214.382 51.9724 214.151 51.1933C210.315 38.1588 195.066 42.2029 184.987 44.9235C183.506 40.5809 182.301 35.9083 181.074 31.4785C187.833 29.3463 191.661 28.6492 198.75 28.1168ZM204.788 74.6634C211.425 72.7213 213.128 71.2947 214.457 64.9584C209.07 62.6862 206.725 62.2663 200.835 62.0841C184.779 63.62 188.947 77.1114 203.207 74.9232C203.735 74.8414 204.262 74.7547 204.788 74.6634Z" fill="black"/>
<path d="M335.906 6.14066C338.72 5.90016 342.075 6.03106 344.946 6.07681L344.931 20.7014C341.647 20.6152 338.441 20.6301 335.227 21.4303C332.237 22.1753 329.329 25.4954 330.447 28.4904C332.809 29.4476 341.725 28.9315 345.013 28.9475C345.246 33.8692 345.214 38.0257 345.115 42.9496C340.549 43.1927 334.562 43.0597 329.915 43.0517C329.672 57.7498 330.128 72.3142 329.649 86.9995L313.267 87L313.226 43.073L304.278 43.0358C304.127 38.2732 304.202 33.6542 304.266 28.8932C307.071 28.7597 310.584 28.8852 313.443 28.9182C314.484 14.499 321.327 8.43656 335.906 6.14066Z" fill="black"/>
<path d="M98.5987 12.0848C103.855 11.9258 109.79 12.0404 115.098 12.0336C115.172 17.6242 115.11 23.3268 115.111 28.9275C119.765 28.8731 124.421 28.8742 129.076 28.9302C129.267 33.4544 129.164 38.2734 129.147 42.8215C124.841 42.9841 119.492 42.8669 115.109 42.8743C115.094 49.2736 113.228 65.2786 117.443 70.2597C119.197 72.3328 125.155 72.0687 127.885 72.0698C127.985 74.9863 127.95 77.8273 127.92 80.7449C127.963 82.7223 127.86 84.8973 127.811 86.8891C126.384 86.9408 124.957 86.9773 123.529 86.9973C116.621 87.0755 109.9 85.4408 104.851 80.8104C97.597 74.1586 98.3422 65.2844 98.3972 56.6182C98.426 52.0459 98.4266 47.4736 98.3972 42.9017C95.7754 42.7264 92.922 42.7734 90.2788 42.7628C90.1032 38.3167 90.2374 33.2664 90.2601 28.7664L98.4034 28.6909C98.3683 23.7578 98.1684 16.8763 98.5987 12.0848Z" fill="black"/>
<path d="M273.417 7L290.136 7.00586C290.774 26.7412 289.339 46.7618 290.276 66.5078C290.58 72.9044 295.666 72.6335 301.008 72.7756C301.315 77.9889 301.195 82.7252 300.932 87.9023C300.07 87.9816 299.204 88.0125 298.338 87.9955C279.05 87.7756 272.732 76.614 273.215 60.1256C273.732 42.471 272.9 24.6674 273.417 7Z" fill="black"/>
<path d="M352.599 7.06683C357.573 7.03438 364.201 6.86574 369.032 7.23283C369.299 27.1862 368.436 47.5892 369.458 67.5384C369.738 73.0022 375.578 72.6484 380.016 72.7867C380.296 77.8266 380.238 82.8776 379.84 87.9105C377.56 88.0674 375.268 88.018 372.998 87.7626C362.667 86.5528 354 79.9733 352.819 70.207C351.688 60.8424 352.432 50.2328 352.405 40.7394L352.25 20.8674C352.215 16.7225 352.046 11.0729 352.599 7.06683Z" fill="black"/>
<path d="M166.887 28.0525C168.295 27.9375 170.614 28.0435 172.094 28.0689L172.19 42.899C153.768 42.8233 152.475 53.8124 153.084 67.7561C153.352 73.8833 153.182 80.7971 153.155 86.9497L141.627 87L136.67 86.9735C136.365 81.8165 136.838 76.2589 136.467 71.2284C134.879 49.734 139.482 30.4827 166.887 28.0525Z" fill="black"/>
<path d="M244.324 29L261.072 29.0016C261.333 48.1738 261.081 67.7603 261.055 86.96C255.524 87.0427 249.81 86.9722 244.265 86.968C244.148 67.6459 244.168 48.3227 244.324 29Z" fill="black"/>
<path d="M243.887 7.11365C249.338 6.83037 255.43 7.1427 260.921 7.33467C261.133 12.1743 261.434 17.1266 260.85 21.9371C255.182 22.0658 249.071 21.9589 243.371 21.9475C243.253 17.689 242.836 11.0931 243.887 7.11365Z" fill="black"/>
<defs>
<linearGradient id="paint0_linear_4_34" x1="37.5474" y1="1.19805" x2="36.3808" y2="48.6135" gradientUnits="userSpaceOnUse">
<stop stop-color="#049BF3"/>
<stop offset="1" stop-color="#764FF6"/>
</linearGradient>
</defs>
</svg>
